<svg xmlns="http://www.w3.org/2000/svg" width="24" height="24" viewBox="0 0 24 24" fill="none">
<g id="24 / Actions / Search">
<path id="Union" fill-rule="evenodd" clip-rule="evenodd" d="M17.5 10.9998C17.5 14.5896 14.5899 17.4998 11 17.4998C7.41015 17.4998 4.5 14.5896 4.5 10.9998C4.5 7.4099 7.41015 4.49976 11 4.49976C14.5899 4.49976 17.5 7.4099 17.5 10.9998ZM16.1018 17.1622C14.717 18.3099 12.9391 18.9998 11 18.9998C6.58172 18.9998 3 15.418 3 10.9998C3 6.58148 6.58172 2.99976 11 2.99976C15.4183 2.99976 19 6.58148 19 10.9998C19 12.9388 18.3101 14.7168 17.1624 16.1015L21.5303 20.4694C21.8232 20.7623 21.8232 21.2372 21.5303 21.5301C21.2374 21.823 20.7626 21.823 20.4697 21.5301L16.1018 17.1622Z" fill="#0D4CD3"/>
</g>
</svg>
